<svg width="28" height="17" viewBox="0 0 28 17" fill="none" xmlns="http://www.w3.org/2000/svg">
<path d="M10.934 4.472C10.8313 4.36933 10.6407 4.23 10.362 4.054C10.098 3.878 9.768 3.70933 9.372 3.548C8.99067 3.38667 8.57267 3.24733 8.118 3.13C7.66333 2.998 7.20133 2.932 6.732 2.932C5.91067 2.932 5.28733 3.086 4.862 3.394C4.45133 3.702 4.246 4.13467 4.246 4.692C4.246 5.11733 4.378 5.45467 4.642 5.704C4.906 5.95333 5.302 6.166 5.83 6.342C6.358 6.518 7.018 6.70867 7.81 6.914C8.83667 7.16333 9.724 7.47133 10.472 7.838C11.2347 8.19 11.814 8.65933 12.21 9.246C12.6207 9.818 12.826 10.5807 12.826 11.534C12.826 12.37 12.672 13.0887 12.364 13.69C12.056 14.2767 11.6307 14.7533 11.088 15.12C10.5453 15.4867 9.92933 15.758 9.24 15.934C8.55067 16.0953 7.81733 16.176 7.04 16.176C6.26267 16.176 5.48533 16.0953 4.708 15.934C3.93067 15.7727 3.18267 15.5453 2.464 15.252C1.74533 14.944 1.08533 14.5773 0.484 14.152L1.826 11.534C1.958 11.666 2.19267 11.842 2.53 12.062C2.86733 12.2673 3.278 12.48 3.762 12.7C4.246 12.9053 4.774 13.0813 5.346 13.228C5.918 13.3747 6.49733 13.448 7.084 13.448C7.90533 13.448 8.52867 13.3087 8.954 13.03C9.37933 12.7513 9.592 12.3553 9.592 11.842C9.592 11.3727 9.42333 11.006 9.086 10.742C8.74867 10.478 8.27933 10.2507 7.678 10.06C7.07667 9.85467 6.36533 9.63467 5.544 9.4C4.56133 9.12133 3.74 8.81333 3.08 8.476C2.42 8.124 1.92867 7.684 1.606 7.156C1.28333 6.628 1.122 5.968 1.122 5.176C1.122 4.10533 1.37133 3.21067 1.87 2.492C2.38333 1.75867 3.07267 1.20867 3.938 0.842C4.80333 0.460666 5.764 0.269999 6.82 0.269999C7.55333 0.269999 8.24267 0.350666 8.888 0.511999C9.548 0.673333 10.164 0.886 10.736 1.15C11.308 1.414 11.8213 1.7 12.276 2.008L10.934 4.472Z" fill="black"/>
<path d="M27.7042 11.974C27.7042 12.854 27.4769 13.5947 27.0222 14.196C26.5675 14.7827 25.9515 15.23 25.1742 15.538C24.4115 15.846 23.5755 16 22.6662 16H15.1202V0.379999H23.4802C24.2135 0.379999 24.8442 0.577999 25.3722 0.973999C25.9149 1.35533 26.3255 1.854 26.6042 2.47C26.8975 3.07133 27.0442 3.702 27.0442 4.362C27.0442 5.11 26.8535 5.82133 26.4722 6.496C26.0909 7.17067 25.5335 7.66933 24.8002 7.992C25.6949 8.256 26.3989 8.73267 26.9122 9.422C27.4402 10.1113 27.7042 10.962 27.7042 11.974ZM24.6462 11.402C24.6462 11.006 24.5655 10.654 24.4042 10.346C24.2429 10.0233 24.0229 9.774 23.7442 9.598C23.4802 9.40733 23.1722 9.312 22.8202 9.312H18.1562V13.426H22.6662C23.0329 13.426 23.3629 13.338 23.6562 13.162C23.9642 12.9713 24.2062 12.722 24.3822 12.414C24.5582 12.106 24.6462 11.7687 24.6462 11.402ZM18.1562 2.976V6.914H22.2042C22.5415 6.914 22.8495 6.83333 23.1282 6.672C23.4069 6.51067 23.6269 6.28333 23.7882 5.99C23.9642 5.69667 24.0522 5.34467 24.0522 4.934C24.0522 4.538 23.9715 4.19333 23.8102 3.9C23.6635 3.60667 23.4582 3.37933 23.1942 3.218C22.9449 3.05667 22.6589 2.976 22.3362 2.976H18.1562Z" fill="#CC041E"/>
</svg>
